<?xml version="1.0" encoding="UTF-8"?>
<svg id="Layer_1" xmlns="http://www.w3.org/2000/svg" xmlns:xlink="http://www.w3.org/1999/xlink" version="1.1" viewBox="0 0 1500 320">
  <!-- Generator: Adobe Illustrator 29.1.0, SVG Export Plug-In . SVG Version: 2.1.0 Build 142)  -->
  <defs>
    <style>
      .st0 {
        fill: none;
      }

      .st1 {
        clip-path: url(#clippath-1);
      }

      .st2 {
        clip-path: url(#clippath-2);
      }

      .st3 {
        fill: #5552ff;
      }

      .st4 {
        clip-path: url(#clippath);
      }
    </style>
    <clipPath id="clippath">
      <rect class="st0" width="1500" height="320"/>
    </clipPath>
    <clipPath id="clippath-1">
      <rect class="st0" x="445.8" y="228.1" width="186.2" height="52.5"/>
    </clipPath>
    <clipPath id="clippath-2">
      <rect class="st0" x="769.9" y="186.4" width="186.2" height="52.5"/>
    </clipPath>
  </defs>
  <g class="st4">
    <g>
      <rect width="1500" height="320"/>
      <g class="st1">
        <g>
          <path d="M458.2,228.1h-12.4v52.5h12.4v-52.5Z"/>
          <path d="M467.6,230.3h-6.2v44h6.2v-44Z"/>
          <path d="M475.3,234h-5.1v36.5h5.1v-36.5Z"/>
          <path d="M481,236.4h-3.6v31.7h3.6v-31.7Z"/>
          <path d="M485,238.9h-2.4v26.8h2.4v-26.8Z"/>
          <path d="M487.6,241h-1.2v22.5h1.2v-22.5Z"/>
          <path d="M503.5,263v-21h8.7c4.4,0,7.2,2.7,7.2,6.6s-2.8,6.6-7.2,6.6h-5.4v7.8h-3.3ZM506.7,252.2h5.3c2.6,0,3.9-1.6,3.9-3.6s-1.3-3.6-3.9-3.6h-5.3v7.3h0Z"/>
          <path d="M521.2,263v-14.9h3.1v2c.8-1.6,2.3-2.3,3.9-2.3s2.1.4,2.1.4l-.3,2.8c-.2,0-.8-.3-1.8-.3-1.7,0-3.8.9-3.8,4.2v8.1h-3.1Z"/>
          <path d="M530.9,255.6c0-4.4,3.4-7.8,8-7.8s8,3.4,8,7.8-3.4,7.8-8,7.8-8-3.4-8-7.8ZM538.8,260.4c2.8,0,4.9-2.1,4.9-4.9s-2-4.9-4.9-4.9-4.9,2.1-4.9,4.9,2,4.9,4.9,4.9Z"/>
          <path d="M549.1,241.2h3.1v9c1.1-1.4,2.8-2.3,5.3-2.3,4.3,0,7.5,3.1,7.5,7.7s-3.3,7.8-7.5,7.8-4.2-.9-5.3-2.3v2h-3.1v-21.8ZM557.1,260.6c2.9,0,4.8-2.3,4.8-5.1s-1.9-4.9-4.8-4.9-4.9,2.2-4.9,4.9,2.1,5.1,4.9,5.1Z"/>
          <path d="M574.6,247.8c4.4,0,7.2,3.2,7.2,7.2s0,.9-.1,1.4h-11.6c.1,2.2,2.1,4,4.6,4s3.4-.8,4.5-2.5l2.3,1.6c-1.4,2.5-4.1,3.8-6.8,3.8-4.5,0-7.8-3.3-7.8-7.7s3.2-7.8,7.7-7.8ZM578.7,254.2c-.2-2.1-1.9-3.6-4.1-3.6s-4,1.5-4.4,3.6h8.5Z"/>
          <path d="M598.2,263h-14v-21.1h3.3v18.1h10.7v3h0Z"/>
          <path d="M606.7,254.1c1.8,0,3.1.4,3.8.7v-.8c0-1.9-1.5-3.3-3.8-3.3s-3.4,1.1-4.3,2.1l-1.9-1.9c1.2-1.5,3.6-3,6.3-3,4.2,0,6.9,2.3,6.9,5.9v9.3h-3v-1.9c-.9,1.4-2.7,2.2-4.7,2.2-3.2,0-5.8-1.6-5.8-4.5s2.7-4.7,6.6-4.7h0ZM606.3,260.8c2.4,0,4.1-1.7,4.1-3.7-.6-.3-2.1-.7-3.7-.7s-3.6.7-3.6,2.3,1.4,2.1,3.1,2.1h0Z"/>
          <path d="M616.1,241.2h3.1v9c1.1-1.4,2.8-2.3,5.3-2.3,4.3,0,7.5,3.1,7.5,7.7s-3.3,7.8-7.5,7.8-4.2-.9-5.3-2.3v2h-3.1v-21.8ZM624.2,260.6c2.9,0,4.8-2.3,4.8-5.1s-1.9-4.9-4.8-4.9-4.9,2.2-4.9,4.9,2.1,5.1,4.9,5.1Z"/>
        </g>
      </g>
      <g>
        <path class="st3" d="M1500,143.9h0v-14.7h-14.7v-14.6h14.7v-14.8h-14.8v14.7h-14.6v-14.7h-250.9v44h-32.2v-44h-30.7v14.7h-14.6v-14.7h-14.8v14.7h-14.7v14.8h14.7v14.6h-57.8v-44h-249v44h-68.8v-44h-152.3v-6.3h-6.3v-6.2h6.3v-6.4h-6.3v-6.2h6.3v-6.4h-6.3v-6.2h6.3v-6.4h-6.4v6.3h-6.2v-6.3h-6.4v6.3h-6.2v-6.3h-6.4v6.3h-6.2v-6.3h-6.4v6.4h6.3v6.2h-6.3v6.4h6.3v6.2h-6.3v6.4h6.3v6.2h-6.3v6.3h0v-44h-237V11.9h-43.4v44.1h43.3v44h65.8v43.9h-60.2v44.1h133.2v-44h16.8v6.3h162.8v-6.3h70.1v43.9h-70.1v-6.3h-162.8v6.3h0v44h-150v44h-112.2v6.4h204.9v6.2h-204.9v6.4h204.9v6.2h-204.9v6.4h204.9v6.2h-204.9v6.4h1288.2v-176.1ZM1211.7,257.7c0-7.9,7.6-13.4,18.6-13.4s8.7,1.1,10.6,2v-2.3c0-5.3-4.3-9.2-10.8-9.2s-9.6,3-12.1,5.8l-5.5-5.4c3.2-4.1,10-8.6,17.7-8.6,11.9,0,19.4,6.4,19.4,16.7v26.4h-8.5v-5.5c-2.6,4-7.5,6.3-13.1,6.3-9.1,0-16.3-4.6-16.3-12.9ZM1220.4,257.4c0,3.8,3.8,6.1,8.8,6.1s11.7-4.7,11.7-10.5c-1.8-.9-5.8-2-10.4-2s-10.1,1.8-10.1,6.4ZM1261.6,207.8h8.8v38l18.4-18.3h11.9l-18.2,17.7,18.9,24.5h-11l-14.2-18.4-5.9,5.9v12.5h-8.8v-61.9ZM1303.6,257.7c0-7.9,7.6-13.4,18.6-13.4s8.7,1.1,10.6,2v-2.3c0-5.3-4.3-9.2-10.8-9.2s-9.6,3-12.1,5.8l-5.5-5.4c3.2-4.1,10-8.6,17.7-8.6,11.9,0,19.4,6.4,19.4,16.7v26.4h-8.5v-5.5c-2.6,4-7.5,6.3-13.1,6.3-9.1,0-16.3-4.6-16.3-12.9ZM1312.3,257.4c0,3.8,3.8,6.1,8.8,6.1s11.7-4.7,11.7-10.5c-1.8-.9-5.8-2-10.4-2s-10.1,1.8-10.1,6.4ZM1352.4,213.4c0-3.2,2.2-5.4,5.4-5.4s5.4,2.2,5.4,5.4-2.2,5.4-5.4,5.4-5.4-2.2-5.4-5.4ZM1362.2,269.7h-8.7v-42.2h8.7v42.2ZM1014,202.7v14.6h-14.6v-14.6h14.6ZM1412.5,232h30.3v6.3h6.3v6.2h-6.3v6.4h6.3v6.2h-6.3v6.4h6.3v6.2h-6.3v6.3h-30.3v-43.9ZM1455.4,250.9h6.2v6.2h-6.2v-6.2ZM1467.9,250.8h-6.2v-6.2h6.2v6.2ZM1461.7,257.2h6.2v6.2h-6.2v-6.2ZM1468,257.1v-6.2h6.2v6.2h-6.2ZM1474.1,244.5h-6.2v-6.2h6.2v6.2ZM1461.6,244.5h-6.2v-6.2h6.2v6.2ZM1449.1,244.6h6.2v6.2h-6.2v-6.2ZM1449.1,257.2h6.2v6.2h-6.2v-6.2ZM1455.4,269.7v-6.2h6.2v6.2h-6.2ZM1480.4,250.8h-6.2v-6.2h6.2v6.2ZM1468,269.7v-6.2h6.2v6.2h-6.2ZM1474.2,263.4v-6.2h6.2v6.2h-6.2ZM1480.4,238.2h-6.2v-6.2h6.2v6.2ZM1467.9,238.2h-6.2v-6.2h6.2v6.2ZM1455.3,238.2h-6.2v-6.2h6.2v6.2ZM1449.1,269.8h6.2v6.2h-6.2v-6.2ZM1461.7,269.8h6.2v6.2h-6.2v-6.2ZM1480.5,257.1v-6.2h6.2v6.2h-6.2ZM1480.5,244.5v-6.2h6.2v6.2h-6.2ZM1474.2,269.8h6.2v6.2h-6.2v-6.2ZM1480.5,269.7v-6.2h6.2v6.2h-6.2ZM1110.1,231.9v-6.3h-32.1v6.3h-63.8v-14.6h14.7v-14.8h-14.7v-14.6h63.8v6.3h32.1v-6.3h10v43.9h-10ZM999.3,202.6h-14.6v-14.6h14.6v14.6ZM984.8,217.4h14.6v14.6h-14.6v-14.6ZM1485.2,143.9h-14.6v-14.6h14.6v14.6ZM1470.6,114.7v14.6h-14.6v-14.6h14.6ZM1156.9,143.9h-14.6v-14.6h14.6v14.6ZM1142.2,129.3h-14.6v-14.6h14.6v14.6ZM587,93.7h-6.2v-6.2h6.2v6.2ZM574.5,81.2h6.2v6.2h-6.2v-6.2ZM587,81.1h-6.2v-6.2h6.2v6.2ZM580.7,68.6v6.2h-6.2v-6.2h6.2ZM568.3,74.9h6.2v6.2h-6.2v-6.2ZM568.3,87.5h6.2v6.2h-6.2v-6.2ZM574.5,93.8h6.2v6.2h-6.2v-6.2ZM593.3,99.9h-6.2v-6.2h6.2v6.2ZM593.3,87.4h-6.2v-6.2h6.2v6.2ZM593.3,74.8h-6.2v-6.2h6.2v6.2ZM587,62.3v6.2h-6.2v-6.2h6.2ZM574.4,62.3v6.2h-6.2v-6.2h6.2ZM562,68.6h6.2v6.2h-6.2v-6.2ZM562,81.2h6.2v6.2h-6.2v-6.2ZM568.2,93.8v6.2h-6.2v-6.2h6.2Z"/>
        <rect class="st3" x="1077.9" y="213.1" width="32.1" height="6.4"/>
        <rect class="st3" x="1077.9" y="200.5" width="32.1" height="6.4"/>
        <rect class="st3" x="474.1" y="169.1" width="162.8" height="6.4"/>
        <rect class="st3" x="474.1" y="156.5" width="162.8" height="6.4"/>
        <polygon class="st3" points="61.3 55.9 -2.7 55.9 -2.7 143.9 61.2 143.9 61.2 143.9 125.1 143.9 125.1 114.6 61.3 114.6 61.3 55.9"/>
        <path class="st3" d="M184.9,187.8h-14.8v14.7h-14.7v14.8h14.7v14.7h14.8v-14.7h14.7v-14.8h-14.7v-14.7ZM170.2,217.1v-14.6h14.6v14.6h-14.6Z"/>
      </g>
      <g class="st2">
        <g>
          <path d="M782.3,186.4h-12.4v52.5h12.4v-52.5Z"/>
          <path d="M791.7,188.5h-6.2v44h6.2v-44Z"/>
          <path d="M799.4,192.3h-5.1v36.5h5.1v-36.5Z"/>
          <path d="M805.1,194.7h-3.6v31.7h3.6v-31.7Z"/>
          <path d="M809,197.1h-2.4v26.8h2.4v-26.8Z"/>
          <path d="M811.6,199.3h-1.2v22.5h1.2v-22.5Z"/>
          <path d="M827.5,221.3v-21h8.7c4.4,0,7.2,2.7,7.2,6.6s-2.8,6.6-7.2,6.6h-5.4v7.8h-3.3ZM830.8,210.5h5.3c2.6,0,3.9-1.6,3.9-3.6s-1.3-3.6-3.9-3.6h-5.3v7.3h0Z"/>
          <path d="M845.3,221.3v-14.9h3.1v2c.8-1.6,2.3-2.3,3.9-2.3s2.1.4,2.1.4l-.3,2.8c-.2,0-.8-.3-1.8-.3-1.7,0-3.8.9-3.8,4.2v8.1h-3.1Z"/>
          <path d="M854.9,213.8c0-4.4,3.4-7.8,8-7.8s8,3.4,8,7.8-3.4,7.8-8,7.8-8-3.4-8-7.8ZM862.9,218.7c2.8,0,4.9-2.1,4.9-4.9s-2-4.9-4.9-4.9-4.9,2.1-4.9,4.9,2,4.9,4.9,4.9Z"/>
          <path d="M873.1,199.4h3.1v9c1.1-1.4,2.8-2.3,5.3-2.3,4.3,0,7.5,3.1,7.5,7.7s-3.3,7.8-7.5,7.8-4.2-.9-5.3-2.3v2h-3.1v-21.8ZM881.2,218.8c2.9,0,4.8-2.3,4.8-5.1s-1.9-4.9-4.8-4.9-4.9,2.2-4.9,4.9,2.1,5.1,4.9,5.1Z"/>
          <path d="M898.7,206.1c4.4,0,7.2,3.2,7.2,7.2s0,.9-.1,1.4h-11.6c.1,2.2,2.1,4,4.6,4s3.4-.8,4.5-2.5l2.3,1.6c-1.4,2.5-4.1,3.8-6.8,3.8-4.5,0-7.8-3.3-7.8-7.7s3.2-7.8,7.7-7.8ZM902.8,212.4c-.2-2.1-1.9-3.6-4.1-3.6s-4,1.5-4.4,3.6h8.5Z"/>
          <path d="M922.3,221.3h-14v-21.1h3.3v18.1h10.7v3h0Z"/>
          <path d="M930.8,212.3c1.8,0,3.1.4,3.8.7v-.8c0-1.9-1.5-3.3-3.8-3.3s-3.4,1.1-4.3,2.1l-1.9-1.9c1.2-1.5,3.6-3,6.3-3,4.2,0,6.9,2.3,6.9,5.9v9.3h-3v-1.9c-.9,1.4-2.7,2.2-4.7,2.2-3.2,0-5.8-1.6-5.8-4.5s2.7-4.7,6.6-4.7h0ZM930.4,219.1c2.4,0,4.1-1.7,4.1-3.7-.6-.3-2.1-.7-3.7-.7s-3.6.7-3.6,2.3,1.4,2.1,3.1,2.1h0Z"/>
          <path d="M940.2,199.4h3.1v9c1.1-1.4,2.8-2.3,5.3-2.3,4.3,0,7.5,3.1,7.5,7.7s-3.3,7.8-7.5,7.8-4.2-.9-5.3-2.3v2h-3.1v-21.8ZM948.2,218.8c2.9,0,4.8-2.3,4.8-5.1s-1.9-4.9-4.8-4.9-4.9,2.2-4.9,4.9,2.1,5.1,4.9,5.1Z"/>
        </g>
      </g>
    </g>
  </g>
</svg>